<svg width="81" height="18" viewBox="0 0 81 18" fill="none" xmlns="http://www.w3.org/2000/svg">
<path d="M52.457 14H52.207V14.25H52.457V14ZM52.457 3.6875V3.4375H52.207V3.6875H52.457ZM54.5078 3.6875H54.7578V3.4375H54.5078V3.6875ZM54.5078 7.37305H54.2578V7.62305H54.5078V7.37305ZM55.4805 7.37305V7.62305H55.7305V7.37305H55.4805ZM55.4805 3.6875V3.4375H55.2305V3.6875H55.4805ZM57.5312 3.6875H57.7812V3.4375H57.5312V3.6875ZM57.5312 14V14.25H57.7812V14H57.5312ZM55.4805 14H55.2305V14.25H55.4805V14ZM55.4805 9.32422H55.7305V9.07422H55.4805V9.32422ZM54.5078 9.32422V9.07422H54.2578V9.32422H54.5078ZM54.5078 14V14.25H54.7578V14H54.5078ZM52.707 14V3.6875H52.207V14H52.707ZM52.457 3.9375H54.5078V3.4375H52.457V3.9375ZM54.2578 3.6875V7.37305H54.7578V3.6875H54.2578ZM54.5078 7.62305H55.4805V7.12305H54.5078V7.62305ZM55.7305 7.37305V3.6875H55.2305V7.37305H55.7305ZM55.4805 3.9375H57.5312V3.4375H55.4805V3.9375ZM57.2812 3.6875V14H57.7812V3.6875H57.2812ZM57.5312 13.75H55.4805V14.25H57.5312V13.75ZM55.7305 14V9.32422H55.2305V14H55.7305ZM55.4805 9.07422H54.5078V9.57422H55.4805V9.07422ZM54.2578 9.32422V14H54.7578V9.32422H54.2578ZM54.5078 13.75H52.457V14.25H54.5078V13.75ZM59.0137 13.3496L58.8248 13.5134L58.8262 13.515L59.0137 13.3496ZM59.0078 4.2793L58.8264 4.10723L58.8257 4.10805L59.0078 4.2793ZM62.7988 4.2793L62.6167 4.45054L62.6175 4.45136L62.7988 4.2793ZM62.793 13.3496L62.6048 13.185L62.6047 13.1851L62.793 13.3496ZM60.5371 11.9902L60.3186 12.1117L60.32 12.1143L60.5371 11.9902ZM60.9062 13.8438C60.1347 13.8438 59.5799 13.6137 59.2012 13.1843L58.8262 13.515C59.3224 14.0777 60.0293 14.3438 60.9062 14.3438V13.8438ZM59.2025 13.1858C58.8222 12.7472 58.6133 12.0939 58.6133 11.1875H58.1133C58.1133 12.164 58.338 12.952 58.8248 13.5134L59.2025 13.1858ZM58.6133 11.1875V6.28906H58.1133V11.1875H58.6133ZM58.6133 6.28906C58.6133 5.44387 58.8189 4.84521 59.19 4.45054L58.8257 4.10805C58.3374 4.62745 58.1133 5.36863 58.1133 6.28906H58.6133ZM59.1892 4.45136C59.5618 4.05861 60.1198 3.84375 60.9062 3.84375V3.34375C60.0286 3.34375 59.321 3.58592 58.8264 4.10723L59.1892 4.45136ZM60.9062 3.84375C61.6928 3.84375 62.2483 4.05866 62.6167 4.45054L62.981 4.10805C62.49 3.58587 61.7837 3.34375 60.9062 3.34375V3.84375ZM62.6175 4.45136C62.9919 4.84607 63.1992 5.44441 63.1992 6.28906H63.6992C63.6992 5.36809 63.4729 4.62658 62.9802 4.10723L62.6175 4.45136ZM63.1992 6.28906V11.1875H63.6992V6.28906H63.1992ZM63.1992 11.1875C63.1992 12.0934 62.9886 12.7464 62.6048 13.185L62.9811 13.5142C63.4723 12.9528 63.6992 12.1644 63.6992 11.1875H63.1992ZM62.6047 13.1851C62.2301 13.6137 61.6779 13.8438 60.9062 13.8438V14.3438C61.7831 14.3438 62.4886 14.0777 62.9812 13.5141L62.6047 13.1851ZM60.9238 12.4453C61.0441 12.4453 61.1608 12.4156 61.2645 12.3486C61.3671 12.2823 61.4429 12.1889 61.4975 12.0829C61.6031 11.8783 61.6426 11.6032 61.6426 11.2871H61.1426C61.1426 11.5765 61.1039 11.7555 61.0532 11.8536C61.0298 11.899 61.0079 11.9191 60.9933 11.9285C60.9798 11.9372 60.9598 11.9453 60.9238 11.9453V12.4453ZM61.6426 11.2871V6.25391H61.1426V11.2871H61.6426ZM61.6426 6.25391C61.6426 5.98316 61.6034 5.73854 61.4927 5.55399C61.3698 5.3491 61.1726 5.24219 60.9355 5.24219V5.74219C61.0032 5.74219 61.0345 5.76223 61.0639 5.81124C61.1056 5.8806 61.1426 6.01684 61.1426 6.25391H61.6426ZM60.9355 5.24219C60.69 5.24219 60.478 5.34107 60.3403 5.54906C60.2147 5.73894 60.1699 5.99207 60.1699 6.27148H60.6699C60.6699 6.03136 60.7111 5.89485 60.7573 5.82496C60.7916 5.77319 60.8373 5.74219 60.9355 5.74219V5.24219ZM60.1699 6.27148V11.2988H60.6699V6.27148H60.1699ZM60.1699 11.2988C60.1699 11.6273 60.2079 11.9124 60.3186 12.1116L60.7556 11.8688C60.7101 11.7868 60.6699 11.611 60.6699 11.2988H60.1699ZM60.32 12.1143C60.4498 12.3412 60.6696 12.4453 60.9238 12.4453V11.9453C60.8186 11.9453 60.7807 11.9127 60.7542 11.8662L60.32 12.1143ZM64.2812 14H64.0312V14.25H64.2812V14ZM64.2812 3.6875V3.4375H64.0312V3.6875H64.2812ZM68.6406 4.05078L68.4735 4.23674L68.475 4.23808L68.6406 4.05078ZM69.1797 5.05859L68.9349 5.10932L68.9354 5.11189L69.1797 5.05859ZM69.1035 7.92383L68.8739 7.82502L68.8729 7.82729L69.1035 7.92383ZM68.3008 8.62109L68.2231 8.38346L67.3259 8.67661L68.2506 8.86601L68.3008 8.62109ZM68.9805 9.10742L68.7568 9.21924L68.7589 9.2233L68.9805 9.10742ZM69.1797 14V14.25H69.4297V14H69.1797ZM67.1465 14H66.8965V14.25H67.1465V14ZM66.959 9.40625L66.8283 9.61955L66.8364 9.62414L66.959 9.40625ZM66.3672 9.29492V9.04492H66.1172V9.29492H66.3672ZM66.3672 14V14.25H66.6172V14H66.3672ZM66.3789 7.50781H66.1289V7.75781H66.3789V7.50781ZM66.3789 5.59766V5.34766H66.1289V5.59766H66.3789ZM64.5312 14V3.6875H64.0312V14H64.5312ZM64.2812 3.9375H67.4453V3.4375H64.2812V3.9375ZM67.4453 3.9375C67.9386 3.9375 68.267 4.05113 68.4735 4.23674L68.8077 3.86482C68.4752 3.56605 68.0067 3.4375 67.4453 3.4375V3.9375ZM68.475 4.23808C68.6955 4.433 68.8534 4.71616 68.9349 5.10932L69.4245 5.00787C69.3263 4.53384 69.1248 4.14513 68.8062 3.86348L68.475 4.23808ZM68.9354 5.11189C69.0244 5.51949 69.0703 6.00668 69.0703 6.57617H69.5703C69.5703 5.9816 69.5225 5.45707 69.4239 5.0053L68.9354 5.11189ZM69.0703 6.57617C69.0703 7.12112 68.9997 7.53249 68.8739 7.82503L69.3332 8.02263C69.4964 7.64329 69.5703 7.15622 69.5703 6.57617H69.0703ZM68.8729 7.82729C68.7644 8.08643 68.5593 8.27361 68.2231 8.38346L68.3784 8.85873C68.8313 8.71077 69.1614 8.4331 69.3341 8.02036L68.8729 7.82729ZM68.2506 8.86601C68.5122 8.9196 68.6676 9.04078 68.7569 9.21923L69.2041 8.99562C69.0355 8.65844 68.7378 8.4554 68.3509 8.37618L68.2506 8.86601ZM68.7589 9.2233C68.8669 9.42965 68.9297 9.71594 68.9297 10.0977H69.4297C69.4297 9.66687 69.3597 9.293 69.202 8.99155L68.7589 9.2233ZM68.9297 10.0977V14H69.4297V10.0977H68.9297ZM69.1797 13.75H67.1465V14.25H69.1797V13.75ZM67.3965 14V9.96289H66.8965V14H67.3965ZM67.3965 9.96289C67.3965 9.7983 67.3798 9.64674 67.3365 9.51834C67.2928 9.38856 67.2149 9.26339 67.0815 9.18836L66.8364 9.62414C66.828 9.61943 66.8439 9.62218 66.8627 9.67795C66.8819 9.73509 66.8965 9.8267 66.8965 9.96289H67.3965ZM67.0896 9.1931C66.9071 9.08124 66.6511 9.04492 66.3672 9.04492V9.54492C66.6301 9.54492 66.7687 9.58282 66.8283 9.6194L67.0896 9.1931ZM66.1172 9.29492V14H66.6172V9.29492H66.1172ZM66.3672 13.75H64.2812V14.25H66.3672V13.75ZM66.3789 7.75781H66.877V7.25781H66.3789V7.75781ZM66.877 7.75781C66.9966 7.75781 67.1114 7.7242 67.211 7.65189C67.3079 7.58151 67.3765 7.48473 67.425 7.37921C67.519 7.17443 67.5547 6.898 67.5547 6.57617H67.0547C67.0547 6.87544 67.0191 7.06482 66.9706 7.17059C66.9477 7.22035 66.9272 7.24003 66.9172 7.24728C66.9099 7.25261 66.8999 7.25781 66.877 7.25781V7.75781ZM67.5547 6.57617C67.5547 6.36962 67.5467 6.19244 67.5295 6.04724C67.513 5.90772 67.4856 5.77552 67.4345 5.67335L66.9873 5.89696C66.9987 5.9198 67.0183 5.98193 67.033 6.10608C67.047 6.22455 67.0547 6.38038 67.0547 6.57617H67.5547ZM67.4345 5.67335C67.3191 5.44252 67.0997 5.34766 66.8594 5.34766V5.84766C66.9628 5.84766 66.9777 5.87779 66.9873 5.89696L67.4345 5.67335ZM66.8594 5.34766H66.3789V5.84766H66.8594V5.34766ZM66.1289 5.59766V7.50781H66.6289V5.59766H66.1289ZM70.4102 13.3906L70.2228 13.5561L70.2236 13.557L70.4102 13.3906ZM69.7891 10.1445V9.89453H69.5391V10.1445H69.7891ZM71.8281 10.1445H72.0781V9.89453H71.8281V10.1445ZM71.9336 11.9961L71.7111 12.1105L71.7154 12.118L71.9336 11.9961ZM72.7012 12.0312L72.4942 11.8908L72.4909 11.8961L72.7012 12.0312ZM72.7188 10.7012L72.4787 10.771L72.4791 10.7722L72.7188 10.7012ZM72.3906 10.0918L72.1935 10.2456L72.197 10.2499L72.3906 10.0918ZM71.752 9.41211L71.5798 9.59342L71.5804 9.59401L71.752 9.41211ZM70.8262 8.5332L70.9983 8.3519L70.9977 8.35136L70.8262 8.5332ZM70.3984 4.28516L70.2117 4.11897L70.2109 4.11986L70.3984 4.28516ZM74.1836 4.34961L73.9867 4.50373L73.9875 4.50467L74.1836 4.34961ZM74.7812 6.64648V6.89648H75.0312V6.64648H74.7812ZM72.6836 6.64648H72.4336V6.89648H72.6836V6.64648ZM72.5605 5.60938L72.3837 5.7862L72.3881 5.79041L72.5605 5.60938ZM71.875 5.63281L71.6829 5.47276L71.6823 5.47359L71.875 5.63281ZM72.3438 7.0332L72.5169 6.85291L72.5159 6.85188L72.3438 7.0332ZM73.5332 8.17578L73.36 8.35608L73.3609 8.35696L73.5332 8.17578ZM74.1895 8.89648L73.9928 9.05081L73.9939 9.05229L74.1895 8.89648ZM74.6699 9.77539L74.4347 9.86017L74.4351 9.86105L74.6699 9.77539ZM74.3125 13.2734L74.1031 13.1368L74.1029 13.1372L74.3125 13.2734ZM72.4492 13.8438C71.5433 13.8438 70.9478 13.6179 70.5968 13.2242L70.2236 13.557C70.7085 14.1008 71.4723 14.3438 72.4492 14.3438V13.8438ZM70.5975 13.2251C70.2427 12.8234 70.0391 12.1511 70.0391 11.1523H69.5391C69.5391 12.2004 69.7495 13.0203 70.2228 13.5561L70.5975 13.2251ZM70.0391 11.1523V10.1445H69.5391V11.1523H70.0391ZM69.7891 10.3945H71.8281V9.89453H69.7891V10.3945ZM71.5781 10.1445V11.4336H72.0781V10.1445H71.5781ZM71.5781 11.4336C71.5781 11.6918 71.6155 11.9242 71.7113 12.1104L72.1559 11.8818C72.1111 11.7946 72.0781 11.6519 72.0781 11.4336H71.5781ZM71.7154 12.118C71.8425 12.3457 72.0638 12.4453 72.3145 12.4453V11.9453C72.2058 11.9453 72.1731 11.9122 72.1518 11.8741L71.7154 12.118ZM72.3145 12.4453C72.5463 12.4453 72.7768 12.3759 72.9115 12.1664L72.4909 11.8961C72.4849 11.9053 72.4576 11.9453 72.3145 11.9453V12.4453ZM72.908 12.1716C73.026 11.9978 73.0625 11.7543 73.0625 11.4922H72.5625C72.5625 11.7301 72.5248 11.8459 72.4943 11.8909L72.908 12.1716ZM73.0625 11.4922C73.0625 11.1613 73.0301 10.8718 72.9584 10.6301L72.4791 10.7722C72.5324 10.9524 72.5625 11.1903 72.5625 11.4922H73.0625ZM72.9588 10.6313C72.886 10.381 72.7595 10.1484 72.5843 9.9337L72.197 10.2499C72.3342 10.418 72.4265 10.5916 72.4787 10.771L72.9588 10.6313ZM72.5878 9.93804C72.4247 9.729 72.2019 9.49277 71.9235 9.23021L71.5804 9.59401C71.8489 9.84707 72.0519 10.064 72.1935 10.2456L72.5878 9.93804ZM71.9241 9.2308L70.9983 8.3519L70.654 8.71451L71.5798 9.59342L71.9241 9.2308ZM70.9977 8.35136C70.3491 7.7394 70.0391 7.05656 70.0391 6.29492H69.5391C69.5391 7.21297 69.9204 8.02231 70.6546 8.71504L70.9977 8.35136ZM70.0391 6.29492C70.0391 5.45099 70.2343 4.84946 70.586 4.45046L70.2109 4.11986C69.7501 4.64272 69.5391 5.38104 69.5391 6.29492H70.0391ZM70.5852 4.45135C70.9364 4.05671 71.4523 3.84375 72.1738 3.84375V3.34375C71.3485 3.34375 70.6808 3.59173 70.2117 4.11897L70.5852 4.45135ZM72.1738 3.84375C73.0802 3.84375 73.6589 4.08499 73.9867 4.50373L74.3804 4.19549C73.9192 3.60641 73.158 3.34375 72.1738 3.34375V3.84375ZM73.9875 4.50467C74.3355 4.94486 74.5312 5.64399 74.5312 6.64648H75.0312C75.0312 5.59429 74.8285 4.76217 74.3797 4.19455L73.9875 4.50467ZM74.7812 6.39648H72.6836V6.89648H74.7812V6.39648ZM72.9336 6.64648V5.9375H72.4336V6.64648H72.9336ZM72.9336 5.9375C72.9336 5.74608 72.876 5.56456 72.733 5.42834L72.3881 5.79041C72.4092 5.81044 72.4336 5.84767 72.4336 5.9375H72.9336ZM72.7373 5.4326C72.6017 5.29698 72.4246 5.24219 72.2383 5.24219V5.74219C72.3254 5.74219 72.3631 5.76552 72.3838 5.78615L72.7373 5.4326ZM72.2383 5.24219C72.0271 5.24219 71.8236 5.30403 71.6829 5.47277L72.0671 5.79286C72.0827 5.77409 72.1213 5.74219 72.2383 5.74219V5.24219ZM71.6823 5.47359C71.5628 5.6182 71.5137 5.79611 71.5137 5.98438H72.0137C72.0137 5.88358 72.0388 5.82711 72.0677 5.79203L71.6823 5.47359ZM71.5137 5.98438C71.5137 6.17407 71.5649 6.36653 71.6542 6.55856L72.1075 6.34769C72.0406 6.20378 72.0137 6.08374 72.0137 5.98438H71.5137ZM71.6542 6.55856C71.7518 6.76841 71.9323 6.98737 72.1716 7.21453L72.5159 6.85188C72.2942 6.64153 72.1662 6.47378 72.1075 6.34769L71.6542 6.55856ZM72.1706 7.2135L73.36 8.35607L73.7064 7.99549L72.5169 6.85291L72.1706 7.2135ZM73.3609 8.35696C73.5906 8.57533 73.8012 8.80661 73.9928 9.05081L74.3861 8.74216C74.1793 8.47855 73.9524 8.22936 73.7055 7.99461L73.3609 8.35696ZM73.9939 9.05229C74.1743 9.27859 74.3218 9.54693 74.4347 9.86017L74.9051 9.69061C74.7758 9.33197 74.6031 9.01438 74.385 8.74068L73.9939 9.05229ZM74.4351 9.86105C74.5433 10.1577 74.6016 10.5331 74.6016 10.9941H75.1016C75.1016 10.4943 75.0388 10.0571 74.9048 9.68973L74.4351 9.86105ZM74.6016 10.9941C74.6016 11.936 74.4262 12.6416 74.1031 13.1368L74.5219 13.41C74.9175 12.8037 75.1016 11.9898 75.1016 10.9941H74.6016ZM74.1029 13.1372C73.8093 13.5889 73.2849 13.8438 72.4492 13.8438V14.3438C73.3869 14.3438 74.1048 14.0517 74.5221 13.4097L74.1029 13.1372ZM75.543 14H75.293V14.25H75.543V14ZM75.543 3.6875V3.4375H75.293V3.6875H75.543ZM79.668 3.6875H79.918V3.4375H79.668V3.6875ZM79.668 5.67969V5.92969H79.918V5.67969H79.668ZM77.6406 5.67969V5.42969H77.3906V5.67969H77.6406ZM77.6406 7.68945H77.3906V7.93945H77.6406V7.68945ZM79.5859 7.68945H79.8359V7.43945H79.5859V7.68945ZM79.5859 9.62891V9.87891H79.8359V9.62891H79.5859ZM77.6406 9.62891V9.37891H77.3906V9.62891H77.6406ZM77.6406 11.9902H77.3906V12.2402H77.6406V11.9902ZM79.8027 11.9902H80.0527V11.7402H79.8027V11.9902ZM79.8027 14V14.25H80.0527V14H79.8027ZM75.793 14V3.6875H75.293V14H75.793ZM75.543 3.9375H79.668V3.4375H75.543V3.9375ZM79.418 3.6875V5.67969H79.918V3.6875H79.418ZM79.668 5.42969H77.6406V5.92969H79.668V5.42969ZM77.3906 5.67969V7.68945H77.8906V5.67969H77.3906ZM77.6406 7.93945H79.5859V7.43945H77.6406V7.93945ZM79.3359 7.68945V9.62891H79.8359V7.68945H79.3359ZM79.5859 9.37891H77.6406V9.87891H79.5859V9.37891ZM77.3906 9.62891V11.9902H77.8906V9.62891H77.3906ZM77.6406 12.2402H79.8027V11.7402H77.6406V12.2402ZM79.5527 11.9902V14H80.0527V11.9902H79.5527ZM79.8027 13.75H75.543V14.25H79.8027V13.75Z" fill="white"/>
<path d="M0.175781 14L1.17188 3.6875H4.66992L5.64844 14H3.69727L3.55078 12.3359H2.30859L2.17969 14H0.175781ZM2.45508 10.6895H3.39258L2.94141 5.44531H2.84766L2.45508 10.6895ZM6.28125 14V3.6875H9.42188L10.2891 9.97461L11.1504 3.6875H14.3203V14H12.4336V6.57031L11.25 14H9.39844L8.14453 6.57031V14H6.28125ZM15.2344 14V3.6875H18.0293C18.7793 3.6875 19.3242 3.87109 19.6641 4.23828C20.0078 4.60156 20.1797 5.20312 20.1797 6.04297V6.49414C20.1797 6.97852 20.0918 7.37109 19.916 7.67188C19.7441 7.97266 19.4805 8.16992 19.125 8.26367C19.5898 8.38086 19.9004 8.65625 20.0566 9.08984C20.2168 9.51953 20.2969 10.0449 20.2969 10.666C20.2969 11.334 20.2344 11.918 20.1094 12.418C19.9844 12.918 19.7578 13.3066 19.4297 13.584C19.1016 13.8613 18.6348 14 18.0293 14H15.2344ZM17.25 7.57227H17.6719C17.8633 7.57227 17.9863 7.49805 18.041 7.34961C18.0957 7.20117 18.123 7.02344 18.123 6.81641V5.7793C18.123 5.44727 17.9766 5.28125 17.6836 5.28125H17.25V7.57227ZM17.4551 12.1836C17.9902 12.1836 18.2578 11.9297 18.2578 11.4219V10.1328C18.2578 9.83984 18.2129 9.60938 18.123 9.44141C18.0371 9.26953 17.873 9.18359 17.6309 9.18359H17.25V12.1719C17.3359 12.1797 17.4043 12.1836 17.4551 12.1836ZM20.6953 14L21.6914 3.6875H25.1895L26.168 14H24.2168L24.0703 12.3359H22.8281L22.6992 14H20.6953ZM22.9746 10.6895H23.9121L23.4609 5.44531H23.3672L22.9746 10.6895ZM29.25 14.0938C28.3086 14.0938 27.6289 13.8594 27.2109 13.3906C26.7969 12.9219 26.5898 12.1758 26.5898 11.1523V10.1445H28.6289V11.4336C28.6289 11.6719 28.6641 11.8594 28.7344 11.9961C28.8086 12.1289 28.9355 12.1953 29.1152 12.1953C29.3027 12.1953 29.4316 12.1406 29.502 12.0312C29.5762 11.9219 29.6133 11.7422 29.6133 11.4922C29.6133 11.1758 29.582 10.9121 29.5195 10.7012C29.457 10.4863 29.3477 10.2832 29.1914 10.0918C29.0391 9.89648 28.8262 9.66992 28.5527 9.41211L27.627 8.5332C26.9355 7.88086 26.5898 7.13477 26.5898 6.29492C26.5898 5.41602 26.793 4.74609 27.1992 4.28516C27.6094 3.82422 28.2012 3.59375 28.9746 3.59375C29.9199 3.59375 30.5898 3.8457 30.9844 4.34961C31.3828 4.85352 31.582 5.61914 31.582 6.64648H29.4844V5.9375C29.4844 5.79688 29.4434 5.6875 29.3613 5.60938C29.2832 5.53125 29.1758 5.49219 29.0391 5.49219C28.875 5.49219 28.7539 5.53906 28.6758 5.63281C28.6016 5.72266 28.5645 5.83984 28.5645 5.98438C28.5645 6.12891 28.6035 6.28516 28.6816 6.45312C28.7598 6.62109 28.9141 6.81445 29.1445 7.0332L30.334 8.17578C30.5723 8.40234 30.791 8.64258 30.9902 8.89648C31.1895 9.14648 31.3496 9.43945 31.4707 9.77539C31.5918 10.1074 31.6523 10.5137 31.6523 10.9941C31.6523 11.9629 31.4727 12.7227 31.1133 13.2734C30.7578 13.8203 30.1367 14.0938 29.25 14.0938ZM34.793 14.0938C33.8516 14.0938 33.1719 13.8594 32.7539 13.3906C32.3398 12.9219 32.1328 12.1758 32.1328 11.1523V10.1445H34.1719V11.4336C34.1719 11.6719 34.207 11.8594 34.2773 11.9961C34.3516 12.1289 34.4785 12.1953 34.6582 12.1953C34.8457 12.1953 34.9746 12.1406 35.0449 12.0312C35.1191 11.9219 35.1562 11.7422 35.1562 11.4922C35.1562 11.1758 35.125 10.9121 35.0625 10.7012C35 10.4863 34.8906 10.2832 34.7344 10.0918C34.582 9.89648 34.3691 9.66992 34.0957 9.41211L33.1699 8.5332C32.4785 7.88086 32.1328 7.13477 32.1328 6.29492C32.1328 5.41602 32.3359 4.74609 32.7422 4.28516C33.1523 3.82422 33.7441 3.59375 34.5176 3.59375C35.4629 3.59375 36.1328 3.8457 36.5273 4.34961C36.9258 4.85352 37.125 5.61914 37.125 6.64648H35.0273V5.9375C35.0273 5.79688 34.9863 5.6875 34.9043 5.60938C34.8262 5.53125 34.7188 5.49219 34.582 5.49219C34.418 5.49219 34.2969 5.53906 34.2188 5.63281C34.1445 5.72266 34.1074 5.83984 34.1074 5.98438C34.1074 6.12891 34.1465 6.28516 34.2246 6.45312C34.3027 6.62109 34.457 6.81445 34.6875 7.0332L35.877 8.17578C36.1152 8.40234 36.334 8.64258 36.5332 8.89648C36.7324 9.14648 36.8926 9.43945 37.0137 9.77539C37.1348 10.1074 37.1953 10.5137 37.1953 10.9941C37.1953 11.9629 37.0156 12.7227 36.6562 13.2734C36.3008 13.8203 35.6797 14.0938 34.793 14.0938ZM37.6055 14L38.6016 3.6875H42.0996L43.0781 14H41.127L40.9805 12.3359H39.7383L39.6094 14H37.6055ZM39.8848 10.6895H40.8223L40.3711 5.44531H40.2773L39.8848 10.6895ZM43.7109 14V3.6875H46.5469C47.2891 3.6875 47.8477 3.89453 48.2227 4.30859C48.5977 4.71875 48.7852 5.32031 48.7852 6.11328V10.9414C48.7852 11.918 48.6133 12.6719 48.2695 13.2031C47.9297 13.7344 47.332 14 46.4766 14H43.7109ZM45.7852 12.1777H46.1426C46.5215 12.1777 46.7109 11.9941 46.7109 11.627V6.30664C46.7109 5.96289 46.6641 5.74219 46.5703 5.64453C46.4805 5.54297 46.2949 5.49219 46.0137 5.49219H45.7852V12.1777ZM49.998 7.41406L49.4121 3.6875H51.4746L51.0293 7.41406H49.998Z" fill="white"/>
</svg>
